<?xml version="1.0" encoding="UTF-8"?>
<svg id="Layer_1" data-name="Layer 1" xmlns="http://www.w3.org/2000/svg" xmlns:xlink="http://www.w3.org/1999/xlink" viewBox="0 0 143.39 56.37">
  <defs>
    <style>
      .cls-1 {
        clip-path: url(#clippath);
      }

      .cls-2 {
        fill: none;
      }

      .cls-2, .cls-3, .cls-4 {
        stroke-width: 0px;
      }

      .cls-5 {
        clip-path: url(#clippath-1);
      }

      .cls-3 {
        fill: #231f20;
      }

      .cls-4 {
        fill: #fff;
      }
    </style>
    <clipPath id="clippath">
      <rect class="cls-2" x="15.98" y="12.76" width="111.43" height="30.85"/>
    </clipPath>
    <clipPath id="clippath-1">
      <path class="cls-2" d="M126.55,31.96h.19c.07,0,.11.03.11.11,0,.07-.04.11-.11.11h-.19v-.22ZM126.39,31.79v.87h.17v-.32h.14l.14.32h.19l-.15-.34c.08-.04.16-.1.16-.25,0-.19-.12-.28-.27-.28h-.37ZM126.08,32.24c0-.37.26-.66.6-.66s.6.28.6.66-.26.66-.6.66-.6-.28-.6-.66M125.95,32.24c0,.46.32.8.73.8.33,0,.59-.21.69-.52v-.55c-.1-.31-.36-.53-.69-.53-.42,0-.73.35-.73.8M36.87,17.84h.55c1.25,0,1.6.98,1.6,4.06,0,2.86-.39,4.02-1.68,4.02h-.47v-8.08ZM31.51,13.23v29.91h5.36v-12.78h.47l1.92,12.78h5.48l-2.5-14.44c1.45-1.41,2.27-3.72,2.27-7.01,0-6.2-2.85-8.46-6.3-8.46h-6.69ZM54.42,13.23v22.47c0,2.1-.31,2.82-1.21,2.82s-1.29-.72-1.29-2.82V13.23h-5.47v22.05c0,4.83,1.92,7.86,5.72,8.28h1.95c4.05-.41,5.79-3.4,5.79-8.58V13.23h-5.48ZM70.77,13.23v4.83c0,3.03.12,7.35.24,9.32-.43-2.05-1.6-6.37-2.62-9.74l-1.33-4.4h-4.73v29.91h5v-7.35c0-3.21-.08-6.88-.15-8.93.39,2.05,1.41,6.02,2.35,9.4l1.96,6.88h4.3V13.23h-5.01ZM101.4,13.23v11.41h-2.5v-11.41h-5.48v29.91h5.48v-13.2h2.5v13.2h5.47v-12.73h6.17v7.72h5.73v-7.72h8.61v-5.23h-8.61v-7.72h-5.73v7.72h-6.17v-11.95h-5.47ZM15.98,28.27c0,10.53,1.89,14.8,6.02,15.29h1.79c3.64-.41,5.02-3.37,5.6-9.74l-5.24-.85c-.2,4.83-.47,5.55-1.18,5.55-1.09,0-1.37-1.24-1.37-10.43s.24-10.25,1.29-10.25c.9,0,.94,1.28,1.09,5.6l5.32-.85c-.27-5.81-1.56-9.83-6.37-9.83s-6.96,4.36-6.96,15.51M77.89,28.27c0,10.53,1.89,14.8,6.02,15.29h1.79c3.64-.41,5.02-3.37,5.6-9.74l-5.24-.85c-.2,4.83-.47,5.55-1.17,5.55-1.1,0-1.37-1.24-1.37-10.43s.24-10.25,1.29-10.25c.9,0,.94,1.28,1.09,5.6l5.32-.85c-.28-5.81-1.56-9.83-6.38-9.83s-6.96,4.36-6.96,15.51"/>
    </clipPath>
  </defs>
  <g class="cls-1">
    <path class="cls-3" d="M84.85,12.76c-4.85,0-6.96,4.36-6.96,15.51s2.15,15.34,6.88,15.34c4.34,0,5.9-2.9,6.53-9.78l-5.24-.85c-.19,4.83-.47,5.55-1.17,5.55-1.1,0-1.37-1.24-1.37-10.43s.23-10.25,1.29-10.25c.9,0,.94,1.28,1.1,5.6l5.32-.85c-.27-5.81-1.56-9.83-6.38-9.83M22.94,12.76c-4.85,0-6.96,4.36-6.96,15.51s2.15,15.34,6.88,15.34c4.34,0,5.91-2.9,6.53-9.78l-5.24-.85c-.2,4.83-.47,5.55-1.17,5.55-1.1,0-1.37-1.24-1.37-10.43s.24-10.25,1.29-10.25c.9,0,.94,1.28,1.1,5.6l5.32-.85c-.27-5.81-1.56-9.83-6.37-9.83M101.4,13.23v11.41h-2.5v-11.41h-5.48v29.91h5.48v-13.2h2.5v13.2h5.48v-12.74h6.17v7.72h5.73v-7.72h8.65v-5.23h-8.65v-7.72h-5.73v7.72h-6.17v-11.95h-5.48ZM70.77,13.23v4.83c0,3.03.12,7.35.24,9.32-.43-2.05-1.61-6.37-2.62-9.74l-1.33-4.4h-4.73v29.91h5.01v-7.35c0-3.21-.08-6.88-.16-8.93.39,2.05,1.41,6.02,2.35,9.4l1.96,6.88h4.3V13.23h-5.01ZM54.43,13.23v22.47c0,2.09-.31,2.82-1.21,2.82s-1.29-.73-1.29-2.82V13.23h-5.47v22.05c0,5.21,2.23,8.33,6.65,8.33,4.77,0,6.81-3.03,6.81-8.63V13.23h-5.48ZM31.51,13.23v29.91h5.36v-12.78h.47l1.92,12.78h5.48l-2.5-14.44c1.45-1.41,2.27-3.72,2.27-7.01,0-6.19-2.86-8.46-6.3-8.46h-6.69ZM36.86,17.84h.55c1.25,0,1.6.98,1.6,4.06,0,2.86-.39,4.02-1.68,4.02h-.47v-8.08ZM125.95,32.24c0,.45.32.8.73.8s.73-.35.73-.8-.32-.8-.73-.8-.73.35-.73.8M126.08,32.24c0-.37.26-.66.6-.66s.6.28.6.66-.26.66-.6.66-.6-.28-.6-.66M126.39,31.79v.87h.17v-.32h.14l.14.32h.19l-.15-.34c.08-.04.16-.1.16-.25,0-.19-.12-.28-.27-.28h-.37ZM126.55,31.95h.19c.07,0,.11.03.11.11,0,.07-.04.11-.11.11h-.19v-.22Z"/>
  </g>
  <g class="cls-5">
    <rect class="cls-4" x="15.98" y="12.76" width="111.43" height="30.85"/>
  </g>
</svg>